<?xml version="1.0" encoding="UTF-8"?>
<svg width="250px" height="401px" viewBox="0 0 250 401" version="1.1" xmlns="http://www.w3.org/2000/svg" xmlns:xlink="http://www.w3.org/1999/xlink">
    <!-- Generator: Sketch 61 (89581) - https://sketch.com -->
    <title>Path</title>
    <desc>Created with Sketch.</desc>
    <g id="Page-1" stroke="none" stroke-width="1" fill="none" fill-rule="evenodd">
        <g id="Empowered-Pregnancy_Midfifery-services" transform="translate(-1580.000000, -159.000000)" fill="#FFFFFF" fill-rule="nonzero">
            <g id="left-arrow-(2)" transform="translate(1705.000000, 359.500000) rotate(-90.000000) translate(-1705.000000, -359.500000) translate(1504.500000, 234.500000)">
                <path d="M383.5985,107.6865 L60.0265,107.6865 L137.2355,30.4725 C143.9995,23.7125 143.9995,12.7465 137.2355,5.9875 C130.4715,-0.7765 119.5055,-0.7765 112.7515,5.9875 L5.9835,112.7575 C-0.7805,119.5175 -0.7805,130.4845 5.9835,137.2425 L112.7515,244.0175 C116.1325,247.4005 120.5635,249.0895 124.9935,249.0895 C129.4235,249.0895 133.8545,247.4005 137.2355,244.0175 C143.9995,237.2575 143.9995,226.2915 137.2355,219.5335 L60.0265,142.3155 L383.5985,142.3155 C393.1605,142.3155 400.9145,134.5625 400.9145,125.0005 C400.9145,115.4385 393.1615,107.6865 383.5985,107.6865 Z" id="Path"></path>
            </g>
        </g>
    </g>
</svg>