<svg xmlns="http://www.w3.org/2000/svg" width="920" height="661" viewBox="0 0 920 661">
    <g fill="none" fill-rule="evenodd">
        <g transform="translate(0 96)">
            <path fill="#93C7EA" fill-rule="nonzero" d="M523.617 535.903A29.995 29.995 0 0 1 486.5 515.2l-23.8-84.14a29.995 29.995 0 0 1 20.702-37.03 29.995 29.995 0 0 1 37.118 20.72l23.73 84.105c4.527 15.927-4.708 32.51-20.633 37.048z"/>
            <path fill="#93C7EA" fill-rule="nonzero" d="M489.65 535.185a29.995 29.995 0 0 1-.42-42.42l61.25-62.423a29.995 29.995 0 0 1 42.42-.42 29.995 29.995 0 0 1 .42 42.42l-61.25 62.423a29.995 29.995 0 0 1-42.42.42z"/>
            <circle cx="589.581" cy="429.904" r="26.285" fill="#FF8383" fill-rule="nonzero" transform="rotate(-33.66 589.58 429.904)"/>
            <path fill="#FF8383" fill-rule="nonzero" d="M571.987 426.072a6.843 6.843 0 0 1-8.347-4.917l-2.327-9.047a6.843 6.843 0 0 1 4.917-8.348 6.843 6.843 0 0 1 8.347 4.918l2.328 9.047a6.843 6.843 0 0 1-4.918 8.347z"/>
            <path fill="#FF8383" fill-rule="nonzero" d="M598.36 394.94l-9.31 23.572a7.105 7.105 0 0 1-9.222 4.008 7.105 7.105 0 0 1-4.008-9.222l9.31-23.573a7.105 7.105 0 0 1 9.222-4.008 7.105 7.105 0 0 1 4.008 9.223zM614.775 399.875l-11.252 22.75a7.105 7.105 0 0 1-9.52 3.22 7.105 7.105 0 0 1-3.22-9.52l11.252-22.75a7.105 7.105 0 0 1 9.52-3.22 7.105 7.105 0 0 1 3.22 9.52z"/>
            <path fill="#FF8383" fill-rule="nonzero" d="M626.99 412.527l-15.75 19.898a7.105 7.105 0 0 1-9.993 1.173 7.105 7.105 0 0 1-1.172-9.993l15.75-19.898a7.105 7.105 0 0 1 9.992-1.172 7.105 7.105 0 0 1 1.173 9.992zM438.706 296.994l34.973 1.374-2.13 54.208c-.27 6.857-6.046 12.197-12.903 11.928l-10.177-.4c-6.857-.27-12.197-6.047-11.928-12.904l2.13-54.208.035.002z"/>
            <path fill="#D15E79" fill-rule="nonzero" d="M473.707 296.485l-35-1.382-.542 13.755c-.525 13.474 10.5 25.305 23.905 24.325a24.168 24.168 0 0 0 10.343-3.185l1.294-33.513z"/>
            <path fill="#1B2A67" fill-rule="nonzero" d="M491.295 242.83c9.047 16.45-1.418 37.572-23.398 47.25-21.98 9.678-47.11 4.043-56.157-12.407-9.048-16.45 1.418-37.573 23.397-47.25 21.98-9.678 47.11-4.043 56.158 12.407z"/>
            <path fill="#1B2A67" fill-rule="nonzero" d="M515.567 247.8c6.003 12.915-5.67 28.192-26.057 34.142-20.387 5.95-41.79.298-47.793-12.617-6.002-12.915 5.67-28.192 26.058-34.142 20.388-5.95 41.79-.298 47.793 12.617z"/>
            <path fill="#1B2A67" fill-rule="nonzero" d="M482.125 215.565c12.075 7.542 10.658 26.705-3.185 42.822-13.842 16.118-34.842 23.065-46.918 15.54-12.075-7.525-10.657-26.705 3.185-42.822 13.843-16.117 34.843-23.082 46.918-15.54z"/>
            <path fill="#FF8383" fill-rule="nonzero" d="M493.99 287.805c3.5 19.25-6.668 37.293-22.575 40.127-15.908 2.835-31.623-10.5-35-29.837l-2.713-15.208c-3.5-19.25 6.668-37.292 22.575-40.127 15.925-2.835 31.623 10.5 35 29.838l2.713 15.207z"/>
            <path fill="#1B2A67" fill-rule="nonzero" d="M459.988 240.468c-8.75-7.963-24.133-4.113-34.23 8.61-10.098 12.722-11.148 29.504-2.345 37.467 8.802 7.962 24.132 4.113 34.23-8.61 10.097-12.723 11.147-29.435 2.345-37.468z"/>
            <path fill="#86294E" fill-rule="nonzero" d="M465.798 283.5a1.593 1.593 0 0 1-.91-2.905 10.36 10.36 0 0 1 10.675-.455 1.61 1.61 0 0 1-1.61 2.765 7.105 7.105 0 0 0-7.245.315 1.593 1.593 0 0 1-.91.28zM493.5 283.5a1.575 1.575 0 0 1-.91-.28 7.105 7.105 0 0 0-7.245-.315 1.61 1.61 0 0 1-1.61-2.765 10.307 10.307 0 0 1 10.675.455 1.593 1.593 0 0 1-.91 2.905z"/>
            <circle cx="471.323" cy="287.74" r="1.663" fill="#86294E" fill-rule="nonzero" transform="rotate(-87.75 471.323 287.74)"/>
            <circle cx="487.351" cy="288.373" r="1.663" fill="#86294E" fill-rule="nonzero" transform="rotate(-87.75 487.351 288.373)"/>
            <path fill="#FFD2D4" fill-rule="nonzero" d="M492.923 300.072h-.526c-7.09-.143-12.74-5.97-12.669-13.06.072-7.091 5.84-12.802 12.932-12.802 7.091 0 12.86 5.71 12.932 12.801.072 7.091-5.58 12.918-12.67 13.061zm0-24.045a10.92 10.92 0 0 0-.42 21.823c2.89.098 5.703-.939 7.84-2.888a10.92 10.92 0 0 0-7-18.917l-.42-.018z"/>
            <path fill="#FFD2D4" fill-rule="nonzero" d="M464.712 300.563h-.594a14.752 14.752 0 0 1-9.433-25.568c5.983-5.527 15.313-5.158 20.842.822a14.753 14.753 0 0 1-10.815 24.763v-.017zm0-27.003c-6.585-.005-11.996 5.197-12.25 11.777a12.25 12.25 0 0 0 11.76 12.723 12.26 12.26 0 1 0 .963-24.5h-.473z"/>
            <path fill="#FFD2D4" fill-rule="nonzero" d="M476.892 288.12l5.425.21a1.138 1.138 0 0 0 1.19-1.102 1.138 1.138 0 0 0-1.102-1.19l-5.425-.21a1.138 1.138 0 0 0-1.19 1.102 1.138 1.138 0 0 0 1.102 1.19z"/>
            <path fill="#86294E" fill-rule="nonzero" d="M487.76 295.75c-.157 1.908-2.363 3.64-4.935 3.885-2.572.245-4.532-1.12-4.375-3.027.158-1.908 2.363-3.64 4.935-3.885 2.572-.245 4.533 1.19 4.375 3.027zM486.675 306.075a8.365 8.365 0 0 1-8.995 7.665c-4.795-.192-7.56-4.935-7.385-9.363a41.475 41.475 0 0 1 16.38 1.698z"/>
            <path fill="#FFD2D4" fill-rule="nonzero" d="M478.38 308.84c-3.78-.438-6.125-1.75-6.353-4.585a41.248 41.248 0 0 1 13.826 1.54c-.648 2.555-3.763 3.465-7.473 3.045z"/>
            <path fill="#201028" fill-rule="nonzero" d="M467.25 315.508h-9.415a15.278 15.278 0 0 1-10.272-3.955l-5.898-5.25a1.166 1.166 0 0 1 1.54-1.75l5.898 5.25a13.003 13.003 0 0 0 8.75 3.36h9.397a1.146 1.146 0 0 1 0 2.292v.053z"/>
            <path fill="#FFD2D4" fill-rule="nonzero" d="M467.25 316.645h-3.815a2.293 2.293 0 0 1 0-4.567h3.815a2.293 2.293 0 0 1 0 4.567z"/>
            <circle cx="436.49" cy="294.361" r="19.145" fill="#445EEA" fill-rule="nonzero" transform="rotate(-87.75 436.49 294.36)"/>
            <ellipse cx="433.685" cy="294.25" fill="#91A8F6" fill-rule="nonzero" rx="16.345" ry="14.945" transform="rotate(-87.75 433.685 294.25)"/>
            <ellipse cx="430.898" cy="294.138" fill="#E0EEF7" fill-rule="nonzero" rx="6.615" ry="5.145" transform="rotate(-87.75 430.898 294.138)"/>
            <path fill="#93C7EA" fill-rule="nonzero" d="M482.755 561.645l-91.577 2.572c-15.258-.606-27.14-13.459-26.548-28.717l5.793-153.248a19.04 19.04 0 0 1 13.247-17.394l68.25-21.736 54.582 26.128a19.04 19.04 0 0 1 10.798 17.92l-5.81 147.91a27.668 27.668 0 0 1-28.735 26.565z"/>
            <path fill="#6EACCE" fill-rule="nonzero" d="M517.3 387.188c.315 15.977.123 31.937-.14 47.897-.262 15.96-.77 31.903-1.347 47.845a1615.796 1615.796 0 0 1-2.415 47.81 42.577 42.577 0 0 1-1.89 12.25c-4.13 12.124-16.014 19.851-28.77 18.707a27.773 27.773 0 0 0 20.597-9.66 25.97 25.97 0 0 0 5.425-9.94 39.55 39.55 0 0 0 1.12-11.444c.21-15.96.788-31.903 1.348-47.846a1558.2 1558.2 0 0 1 2.415-47.81c1.05-15.925 2.1-31.902 3.657-47.81z"/>
            <path fill="#93C7EA" fill-rule="nonzero" d="M436.509 333.345l36.202 2.335a6.633 6.633 0 0 1 6.192 7.045l-1.895 29.374-49.37-3.184 1.896-29.391a6.632 6.632 0 0 1 7.046-6.192l-.071.013zM329.752 516.722a29.995 29.995 0 0 1-16.204-39.217l33.53-80.745a29.995 29.995 0 0 1 39.217-16.205 29.995 29.995 0 0 1 16.205 39.217L368.97 500.5a29.995 29.995 0 0 1-39.218 16.222z"/>
            <path fill="#6EACCE" fill-rule="nonzero" d="M386.313 380.555a29.505 29.505 0 0 1 13.86 9.73 30.993 30.993 0 0 1 6.3 16.205c.787 5.88-1.103 12.127-3.256 17.185l-6.334 15.575c-4.34 10.342-8.75 20.668-13.388 30.87l-7 15.295c-2.502 5.04-4.865 10.115-7.49 15.102 1.75-5.372 3.623-10.64 5.408-15.96l5.862-15.75c3.92-10.5 8.155-20.894 12.408-31.272l6.562-15.488a43.855 43.855 0 0 0 2.835-7.542c.653-2.549.96-5.174.91-7.805a30.485 30.485 0 0 0-16.678-26.145z"/>
            <path fill="#86294E" fill-rule="nonzero" d="M469.402 474.408l-15.277-.98c-5.712-.421-10.033-5.342-9.712-11.06l.437-6.895c.42-5.713 5.341-10.034 11.06-9.713l15.277.98-1.785 27.668zm-14-21.805a3.5 3.5 0 0 0-3.762 3.307l-.438 6.895a3.5 3.5 0 0 0 3.308 3.762l8.435.543.892-14-8.435-.507z"/>
            <path fill="#D15E79" fill-rule="nonzero" d="M484.243 496.37l-13.213-.858a14.56 14.56 0 0 1-13.597-15.47l2.817-42.542c.298-4.743 42.577-2.012 42.28 2.73l-2.747 42.472a14.56 14.56 0 0 1-15.54 13.668z"/>
            <ellipse cx="480.908" cy="440.341" fill="#86294E" fill-rule="nonzero" rx="3.098" ry="17.36" transform="rotate(-86.31 480.908 440.341)"/>
            <path fill="#93C7EA" fill-rule="nonzero" d="M313.127 489.755c.269-16.56 13.908-29.768 30.468-29.505l87.5 1.382a29.995 29.995 0 0 1 29.522 30.468 29.995 29.995 0 0 1-30.467 29.522l-87.5-1.382a29.995 29.995 0 0 1-29.522-30.485z"/>
            <path fill="#6EACCE" fill-rule="nonzero" d="M343.595 460.25c11.235-.77 22.452-1.033 33.67-1.225 11.218-.192 22.435-.123 33.635 0l16.817.385c5.495 0 11.988.787 17.063 3.85a31.045 31.045 0 0 1 12.355 12.25 29.505 29.505 0 0 1 3.413 16.59 30.485 30.485 0 0 0-17.343-25.69 29.382 29.382 0 0 0-7.507-2.275 43.978 43.978 0 0 0-8.05-.385l-16.818-.14c-11.217-.228-22.417-.473-33.618-1.067-11.2-.596-22.417-1.19-33.617-2.293z"/>
            <circle cx="464.59" cy="485.488" r="26.285" fill="#FF8383" fill-rule="nonzero" transform="rotate(-5.32 464.59 485.488)"/>
            <path fill="#FF8383" fill-rule="nonzero" d="M450.957 472.92a6.282 6.282 0 0 1-3.885-7.998l2.8-8.102a6.282 6.282 0 0 1 7.998-3.885 6.282 6.282 0 0 1 3.885 7.998l-2.8 8.102a6.282 6.282 0 0 1-7.998 3.885zM501.288 476.368l-23.328 2.17a6.58 6.58 0 0 1-7.157-5.933 6.58 6.58 0 0 1 5.932-7.158l23.327-2.17a6.58 6.58 0 0 1 7.158 5.933 6.58 6.58 0 0 1-5.933 7.158zM496.353 497.805l-23.38-1.505a6.58 6.58 0 0 1-6.143-7 6.58 6.58 0 0 1 7-6.142l23.38 1.505a6.58 6.58 0 0 1 6.143 7 6.58 6.58 0 0 1-7 6.142z"/>
            <path fill="#5494B8" fill-rule="nonzero" d="M458.377 551.898h226.52c6.318 0 8.26-5.128 8.26-11.446H446.933a11.445 11.445 0 0 0 11.445 11.446z"/>
            <path fill="#5494B8" fill-rule="nonzero" d="M445.235 540.452h80.29c0 6.318-5.81 11.446-13.002 11.446h-67.62c-7.403-.106-7.07-11.446.332-11.446z"/>
            <path fill="#E0EEF7" fill-rule="nonzero" d="M530.548 543.778h162.627a10.062 10.062 0 0 0 9.87-8.173l21.928-94.045a10.062 10.062 0 0 0-9.87-11.935H552.457a10.063 10.063 0 0 0-9.888 8.19l-21.91 94.045a10.062 10.062 0 0 0 9.888 11.918z"/>
            <path fill="#5494B8" fill-rule="nonzero" d="M542.5 437.798a10.028 10.028 0 0 1 4.008-6.283 10.01 10.01 0 0 1 4.007 10.028l-21.91 94.044a10.028 10.028 0 0 1-4.008 6.283 10.028 10.028 0 0 1-4.024-10.028l21.927-94.044z"/>
            <path fill="#6EACCE" fill-rule="nonzero" d="M469.49 543.602h-8.015a2.853 2.853 0 0 1 0-5.705h7.998a2.853 2.853 0 1 1 .017 5.705zM485.1 543.602h-7.998a2.853 2.853 0 0 1 0-5.705h7.998a2.852 2.852 0 1 1 0 5.705zM500.728 543.602h-7.998a2.853 2.853 0 0 1 0-5.705h7.998a2.852 2.852 0 1 1 0 5.705zM516.337 543.602h-7.997a2.853 2.853 0 0 1 0-5.705h7.998a2.852 2.852 0 1 1 0 5.705z"/>
            <path fill="#1B2A67" fill-rule="nonzero" d="M814.398 564.987h-684.25a6.86 6.86 0 0 1-6.86-6.86 6.86 6.86 0 0 1 6.86-6.878l684.25.001a6.86 6.86 0 0 1 6.86 6.86 6.86 6.86 0 0 1-6.86 6.877z"/>
            <path stroke="#1B2A67" stroke-linecap="round" stroke-width="1.452" d="M232.575 509.11S227.5 471.275 218.418 462"/>
            <path fill="#FFD2D4" fill-rule="nonzero" d="M219.887 439.46c2.433 8.067 1.943 15.348-1.12 16.275-3.062.928-7.49-4.865-9.94-12.933v-.245c-2.065-7.192 8.75-10.5 11.043-3.342l.017.245z"/>
            <path fill="#FFD2D4" fill-rule="nonzero" d="M234.36 457.485c-8.068 2.433-15.348 1.942-16.275-1.12-.928-3.063 4.865-7.49 12.933-9.94h.244c7.175-2.065 10.5 8.75 3.343 11.042l-.245.018z"/>
            <path fill="#FFD2D4" fill-rule="nonzero" d="M206.762 465.815c8.068-2.433 13.86-6.877 12.933-9.94-.927-3.063-8.207-3.5-16.275-1.12h-.245c-7.123 2.257-3.85 13.108 3.343 11.043l.244.017z"/>
            <path fill="#FFD2D4" fill-rule="nonzero" d="M220.343 474.985c2.275-8.12 1.61-15.382-1.453-16.24-3.063-.858-7.402 5.022-9.66 13.142v.245c-1.907 7.228 8.995 10.273 11.113 3.098v-.245z"/>
            <path fill="#FFD2D4" fill-rule="nonzero" d="M228.13 472.623c-6.387-5.495-9.87-11.918-7.787-14.333 2.082-2.415 8.942.087 15.312 5.582l.192.158c5.6 4.953-1.75 13.545-7.525 8.75l-.192-.157z"/>
            <circle cx="218.789" cy="457.923" r="3.938" fill="#D15E79" fill-rule="nonzero" transform="rotate(-16.81 218.789 457.923)"/>
            <ellipse cx="212.05" cy="491.924" fill="#5BE79C" fill-rule="nonzero" rx="9.135" ry="24.15" transform="rotate(-51.77 212.05 491.924)"/>
            <ellipse cx="247.369" cy="489.719" fill="#5BE79C" fill-rule="nonzero" rx="27.475" ry="10.395" transform="rotate(-43.2 247.37 489.72)"/>
            <path fill="#1B2A67" fill-rule="nonzero" d="M246.365 553.56h-36.19l-6.335-45.517h48.86z"/>
            <rect width="57.767" height="16.922" x="199.377" y="502.793" fill="#1B2A67" fill-rule="nonzero" rx="2.572"/>
            <path fill="#445EEA" fill-rule="nonzero" d="M338.66 167.773l17.938 19.25 136.78-57.05z"/>
            <path fill="#91A8F6" fill-rule="nonzero" d="M345.048 104.282l-13.51 20.37 9.135 19.985-20.493 3.483-18.113 39.743 195.685-59.22z"/>
            <path fill="#445EEA" fill-rule="nonzero" d="M340.673 144.637l-9.135-19.984 105.98 4.97z"/>
            <path fill="#0655E7" fill-rule="nonzero" d="M330.365 342.125h-4.515a2.748 2.748 0 0 1-2.713-2.765 2.679 2.679 0 0 1 2.765-2.713c7.106 0 14.158 0 21.893-.35h.123a2.747 2.747 0 0 1 .122 5.478c-6.213.228-12.04.35-17.675.35zm-26.495-1.085h-.245c-7.56-.648-14.98-1.61-22.085-2.888a2.748 2.748 0 0 1-2.223-3.185 2.782 2.782 0 0 1 3.185-2.222c7 1.243 14.21 2.188 21.596 2.817a2.747 2.747 0 0 1-.228 5.478zm-43.278-7.91a2.66 2.66 0 0 1-.804-.123 158.76 158.76 0 0 1-20.913-8.032 2.748 2.748 0 0 1 2.327-4.97 154.175 154.175 0 0 0 20.178 7.752 2.747 2.747 0 0 1-.805 5.373h.017zm-39.724-18.707a2.73 2.73 0 0 1-1.523-.456 145.355 145.355 0 0 1-17.657-13.86 2.747 2.747 0 0 1 3.71-4.042 140.35 140.35 0 0 0 16.975 13.335 2.747 2.747 0 0 1-1.523 5.023h.018zm-32.323-29.75a2.748 2.748 0 0 1-2.152-1.033 146.265 146.265 0 0 1-12.583-18.585 2.748 2.748 0 0 1 4.76-2.713 140.84 140.84 0 0 0 12.18 17.92 2.747 2.747 0 0 1-2.153 4.445l-.052-.034zm-21.735-38.098a2.748 2.748 0 0 1-2.572-1.75 134.75 134.75 0 0 1-6.16-21.612 2.748 2.748 0 0 1 5.39-1.05 129.062 129.062 0 0 0 5.915 20.737 2.748 2.748 0 0 1-2.573 3.71v-.035zm-8.75-43.032a2.747 2.747 0 0 1-2.73-2.573c-.28-4.48-.42-9.205-.42-14v-1.12c0-2.333.04-4.72.123-7.157a2.747 2.747 0 0 1 2.747-2.66h.088a2.747 2.747 0 0 1 2.66 2.835 200.106 200.106 0 0 0-.123 7v1.102c0 4.708.14 9.31.42 13.667a2.73 2.73 0 0 1-2.555 2.905h-.21zM181.125 160.037c-4.188 0-8.307-.052-12.355-.157a2.747 2.747 0 0 1 0-5.477c7.082.174 14.385.174 21.91 0a2.59 2.59 0 0 1 2.8 2.695 2.73 2.73 0 0 1-2.695 2.8c-3.22.093-6.44.14-9.66.14zm31.762-.927a2.747 2.747 0 0 1-.14-5.478 679.274 679.274 0 0 0 21.893-1.592 2.747 2.747 0 1 1 .49 5.46 639.944 639.944 0 0 1-22.085 1.593l-.157.017zm-66.062-.35h-.21c-7.63-.595-15.067-1.4-22.085-2.415a2.747 2.747 0 0 1-2.328-3.097 2.782 2.782 0 0 1 3.098-2.328c6.895.98 14.21 1.75 21.735 2.363a2.747 2.747 0 0 1-.21 5.477zm109.97-3.5a2.747 2.747 0 0 1-.315-5.46c7.128-.84 14.385-1.773 21.77-2.8a2.747 2.747 0 1 1 .77 5.425 894.515 894.515 0 0 1-21.928 2.852l-.297-.017zm-153.545-2.817a2.765 2.765 0 0 1-.595 0c-5.25-1.19-10.5-2.538-15.365-3.99a222.867 222.867 0 0 1-6.143-1.925 2.767 2.767 0 0 1 1.75-5.25c1.96.653 3.956 1.277 5.985 1.872a225.351 225.351 0 0 0 14.998 3.885 2.747 2.747 0 0 1-.595 5.425l-.035-.018zm-41.685-14.088a2.73 2.73 0 0 1-1.19-.28 133.665 133.665 0 0 1-19.355-11.41 2.747 2.747 0 1 1 3.185-4.463 128.275 128.275 0 0 0 18.568 10.938 2.748 2.748 0 0 1-1.19 5.25l-.018-.035zm94.5-2.45a2.748 2.748 0 0 1-2.748-2.748v-.98c0-7-.28-14-.822-20.894a2.747 2.747 0 1 1 5.477-.42c.56 7 .84 14.262.84 21.315v.98a2.748 2.748 0 0 1-2.817 2.747h.07zM26.093 112.648a2.73 2.73 0 0 1-2.03-.893 95.498 95.498 0 0 1-13.178-18.392 2.768 2.768 0 1 1 4.865-2.643 89.757 89.757 0 0 0 12.425 17.343 2.747 2.747 0 0 1-2.03 4.585h-.052zm126.367-20.72a2.748 2.748 0 0 1-2.695-2.275 187.04 187.04 0 0 0-4.847-21.193 2.748 2.748 0 1 1 5.25-1.54 192.868 192.868 0 0 1 4.987 21.823 2.748 2.748 0 0 1-2.24 3.167l-.455.017zM5.075 74.427a2.748 2.748 0 0 1-2.643-2.013c-.35-1.26-.67-2.514-.962-3.763A53.095 53.095 0 0 1 0 56.49a46.62 46.62 0 0 1 .525-7 2.748 2.748 0 1 1 5.425.822 41.58 41.58 0 0 0-.473 6.213 47.617 47.617 0 0 0 1.33 10.902 68.1 68.1 0 0 0 .91 3.5 2.73 2.73 0 0 1-1.907 3.378 2.783 2.783 0 0 1-.752.087l.017.035zm134.75-24.605a2.748 2.748 0 0 1-2.468-1.558A93.012 93.012 0 0 0 126 30.082a2.76 2.76 0 0 1 4.27-3.5 98.787 98.787 0 0 1 11.917 19.25 2.748 2.748 0 0 1-2.467 3.938l.105.052zm-127.96-17.22a2.748 2.748 0 0 1-2.187-4.41A62.16 62.16 0 0 1 26.845 13.02a2.758 2.758 0 1 1 2.905 4.69A56.665 56.665 0 0 0 14 31.5a2.73 2.73 0 0 1-2.135 1.103zM112 16.293a2.73 2.73 0 0 1-1.505-.455 61.95 61.95 0 0 0-19.25-8.33 2.748 2.748 0 1 1 1.313-5.25 67.585 67.585 0 0 1 21 9.064 2.748 2.748 0 0 1-1.558 4.97zm-63.542-7a2.747 2.747 0 0 1-.77-5.373A103.408 103.408 0 0 1 69.23 0H70a2.923 2.923 0 0 1 2.8 2.695 2.748 2.748 0 0 1-2.695 2.8h-.595A97.685 97.685 0 0 0 49.157 9.17a2.782 2.782 0 0 1-.717.123h.018z" opacity=".3"/>
        </g>
        <g fill="#2F78FF">
            <path d="M574.402 39.26L561.83 64.858l1.91-28.457-25.599-12.572 28.457 1.91L579.17.142l-1.91 28.457 25.599 12.572zM711.073 447.224l-5.067 10.316.77-11.467-10.316-5.067 11.467.77 5.067-10.316-.77 11.467 10.316 5.067zM890.431 383.577L878.83 410.86l3.593-29.428-27.282-11.601 29.428 3.593 11.601-27.282-3.593 29.428 27.282 11.601zM820.488 548.577L814.6 562.42l1.823-14.933-13.844-5.888 14.933 1.823 5.888-13.844-1.823 14.933 13.844 5.888zM652.84 22.82l-4.316 8.788.656-9.768-8.788-4.316 9.768.656 4.316-8.788-.656 9.768 8.788 4.316z"/>
        </g>
    </g>
</svg>
