<svg xmlns="http://www.w3.org/2000/svg" width="24" height="24" viewBox="0 0 24 24">
    <g fill="none" fill-rule="nonzero">
        <circle cx="12" cy="12" r="12" fill="#41B4E6"/>
        <path fill="#0091C8" d="M24 12c0-.292-.011-.582-.032-.87l-4.973-4.973-13.99 5.504 5.353 5.352.07.253.09-.092h.001l-.091.092 5.921 5.921C20.826 21.445 24 17.094 24 12z"/>
        <path fill="#FFF" d="M10.835 13.748l5.423 4.095 2.737-11.686-13.99 5.504 4.257 1.41 7.77-5.212z"/>
        <path fill="#D2D2D7" d="M9.262 13.07l1.166 4.196.407-3.518L17.03 7.86z"/>
        <path fill="#B9B9BE" d="M12.597 15.08l-2.17 2.186.408-3.518z"/>
    </g>
</svg>
