<svg xmlns="http://www.w3.org/2000/svg" width="24" height="24" viewBox="0 0 24 24">
    <g fill="none" fill-rule="nonzero">
        <path fill="#EDEDED" d="M0 24l1.655-6C.58 16.138 0 14.069 0 11.917 0 5.38 5.38 0 11.959 0S24 5.38 24 11.917C24 18.455 18.538 24 11.959 24c-2.07 0-4.056-.662-5.835-1.655L0 24z"/>
        <path fill="#55CD6C" d="M6.455 20.193l.373.207c1.53.952 3.31 1.531 5.172 1.531 5.42 0 9.931-4.51 9.931-10.014 0-5.503-4.51-9.848-9.972-9.848s-9.89 4.386-9.89 9.848c0 1.904.538 3.766 1.531 5.338l.248.373-.951 3.475 3.558-.91z"/>
        <path fill="#FEFEFE" d="M8.772 6.372l-.786-.041c-.248 0-.496.083-.662.248-.372.331-.993.952-1.158 1.78-.29 1.241.165 2.73 1.241 4.22 1.076 1.49 3.145 3.89 6.786 4.924 1.159.331 2.07.125 2.814-.33.58-.373.952-.952 1.076-1.573l.124-.58a.416.416 0 0 0-.207-.454l-2.607-1.2a.395.395 0 0 0-.496.124l-1.035 1.324c-.083.083-.207.124-.33.083-.704-.249-3.063-1.242-4.346-3.725-.041-.124-.041-.248.042-.33l.993-1.118c.082-.124.124-.29.082-.414l-1.2-2.69a.36.36 0 0 0-.33-.248"/>
    </g>
</svg>
