<svg xmlns="http://www.w3.org/2000/svg" xmlns:xlink="http://www.w3.org/1999/xlink" width="365" height="246" viewBox="0 0 365 246">
    <defs>
        <path id="a" d="M8 0h349a8 8 0 0 1 8 8v172c0 36.45-29.55 66-66 66H66c-36.45 0-66-29.55-66-66V8a8 8 0 0 1 8-8z"/>
    </defs>
    <g fill="none" fill-rule="evenodd">
        <mask id="b" fill="#fff">
            <use xlink:href="#a"/>
        </mask>
        <use fill="#0655E7" xlink:href="#a"/>
        <g fill-rule="nonzero" mask="url(#b)">
            <path fill="#E3F4FF" d="M173.977-16.475L99.972 241.61 230.359 279c18.24 5.23 37.276-5.345 42.516-23.621l64.517-224.995a5.508 5.508 0 0 0-3.77-6.816L180.785-20.258a5.508 5.508 0 0 0-6.808 3.783z"/>
            <path fill="#BDDFF4" d="M337.716 30.845L273.199 255.84c-5.24 18.273-24.23 28.863-42.413 23.65l-15.138-4.341c18.184 5.214 37.176-5.377 42.415-23.649L322.58 26.505c.839-2.926-.844-5.977-3.755-6.812l15.138 4.341c2.911.835 4.592 3.885 3.753 6.81z"/>
            <path fill="#9CC6DB" d="M202.86 221.426c2.915.836 4.606 3.863 3.774 6.765l-2.322 8.097c-5.193 18.11 5.357 37.025 23.563 42.245l-163.13-46.777c-18.207-5.22-28.757-24.136-23.564-42.247l2.321-8.095c.832-2.9 3.868-4.574 6.785-3.738l152.573 43.75z"/>
            <path fill="#F9B200" d="M195.054 81.105c-1.522 5.309-7.061 8.377-12.369 6.855-5.308-1.522-8.379-7.06-6.856-12.368 1.522-5.31 7.06-8.379 12.369-6.857 5.308 1.522 8.379 7.06 6.856 12.37z"/>
            <g fill="#9CC6DB">
                <path d="M229.25 95.493l-19.494-5.59c-2.199-.63-3.466-2.929-2.833-5.138a4.147 4.147 0 0 1 5.124-2.854l19.495 5.59a4.147 4.147 0 0 1 2.833 5.136c-.634 2.209-2.927 3.487-5.125 2.856zM274.967 118.972l-67.959-19.487c-2.198-.63-3.466-2.93-2.832-5.139.632-2.206 2.926-3.486 5.125-2.856l67.959 19.487c2.198.63 3.465 2.931 2.832 5.138-.633 2.209-2.926 3.487-5.125 2.857zM213.015 78.613a4.167 4.167 0 0 1-2.86-5.12c.619-2.21 2.885-3.51 5.086-2.894l.04.012.026.007c2.185.626 3.457 2.91 2.84 5.112-.62 2.212-2.907 3.505-5.108 2.89l-.024-.007z"/>
            </g>
            <path fill="#F9B200" d="M183.054 123.104c-1.522 5.308-7.061 8.378-12.369 6.856-5.308-1.522-8.378-7.06-6.856-12.369 1.522-5.308 7.06-8.378 12.369-6.856 5.308 1.522 8.378 7.061 6.856 12.369z"/>
            <path fill="#9CC6DB" d="M216.895 137.933l-19.113-5.48c-2.155-.619-3.407-2.84-2.799-4.963.61-2.126 2.849-3.346 5.004-2.728l19.114 5.48c2.155.619 3.407 2.84 2.798 4.966-.61 2.123-2.848 3.343-5.004 2.725zM262.829 160.94l-67.98-19.494c-2.2-.63-3.487-2.861-2.877-4.986.608-2.123 2.883-3.334 5.082-2.704l67.98 19.493c2.199.63 3.486 2.864 2.877 4.986-.609 2.125-2.883 3.335-5.082 2.704zM201.349 121.195c-2.108-.604-3.353-2.806-2.76-4.925.596-2.128 2.78-3.376 4.9-2.783l.04.011.025.007a3.997 3.997 0 0 1 2.74 4.922 3.998 3.998 0 0 1-4.922 2.775l-.023-.007z"/>
            <path fill="#F9B200" d="M171.054 165.104c-1.522 5.308-7.061 8.378-12.369 6.856-5.308-1.522-8.378-7.06-6.856-12.369 1.522-5.308 7.06-8.378 12.369-6.856 5.308 1.522 8.378 7.061 6.856 12.369z"/>
            <path fill="#9CC6DB" d="M204.895 179.933l-19.113-5.48c-2.155-.619-3.407-2.842-2.798-4.964.609-2.125 2.848-3.345 5.003-2.727l19.114 5.48c2.155.619 3.407 2.84 2.798 4.965-.609 2.122-2.848 3.344-5.004 2.726zM250.829 202.94l-67.98-19.494c-2.2-.63-3.487-2.862-2.877-4.987.609-2.123 2.883-3.333 5.082-2.703l67.98 19.493c2.199.63 3.486 2.862 2.878 4.985-.61 2.126-2.884 3.336-5.083 2.705zM189.349 163.195c-2.108-.604-3.353-2.806-2.76-4.925.596-2.128 2.78-3.376 4.9-2.783l.04.011.025.007a3.997 3.997 0 0 1 2.74 4.922 3.998 3.998 0 0 1-4.922 2.775l-.023-.007z"/>
            <path fill="#FD6096" d="M291.714 63.67l-96.16-27.574c-2.91-.834-4.59-3.886-3.75-6.816l3.574-12.462c.84-2.928 3.881-4.627 6.79-3.792l96.162 27.573c2.911.835 4.588 3.886 3.748 6.814l-3.573 12.463c-.84 2.93-3.88 4.629-6.79 3.794z"/>
            <path fill="#4E7693" d="M133.334 126.248l14.388 13.352c1.607 1.49 4.197.2 4.044-2.014l-1.37-19.83-17.062 8.492z"/>
            <path fill="#C0FF66" d="M129.77 124.59L83.02 28.37a4.087 4.087 0 0 1 1.886-5.462l13.75-6.69a4.08 4.08 0 0 1 5.456 1.887l46.75 96.22a4.083 4.083 0 0 1-1.888 5.46l-13.747 6.691a4.078 4.078 0 0 1-5.457-1.886z"/>
            <path fill="#9BE058" d="M129.498 124.68L82.75 28.317a4.097 4.097 0 0 1 1.889-5.47l6.88-3.354 50.316 103.719-6.877 3.353a4.077 4.077 0 0 1-5.46-1.887z"/>
            <path fill="#FD82AC" d="M88.733 38.661L83.765 28.15c-.965-2.046-.114-4.524 1.907-5.534l13.688-6.85a3.98 3.98 0 0 1 5.407 1.876l4.967 10.513-21.001 10.507z"/>
        </g>
    </g>
</svg>
