<svg xmlns="http://www.w3.org/2000/svg" xmlns:xlink="http://www.w3.org/1999/xlink" width="365" height="246" viewBox="0 0 365 246">
    <defs>
        <path id="a" d="M8 0h349a8 8 0 0 1 8 8v172c0 36.45-29.55 66-66 66H66c-36.45 0-66-29.55-66-66V8a8 8 0 0 1 8-8z"/>
    </defs>
    <g fill="none" fill-rule="evenodd">
        <mask id="b" fill="#fff">
            <use xlink:href="#a"/>
        </mask>
        <use fill="#0655E7" xlink:href="#a"/>
        <g fill-rule="nonzero" mask="url(#b)">
            <path fill="#83D9FF" d="M30 102C30 22.47 94.47-42 174-42s144 64.47 144 144-64.47 144-144 144S30 181.53 30 102zm144 86.11c47.558 0 86.11-38.552 86.11-86.11S221.559 15.89 174 15.89 87.89 54.441 87.89 102s38.552 86.11 86.11 86.11z"/>
            <path fill="#3FEFEF" d="M174 246v-57.89c10.993 0 21.498-2.056 31.164-5.81l19.806 54.417C209.121 242.715 191.947 246 174 246z"/>
            <path fill="#1DD1D9" d="M205.164 182.3a86.17 86.17 0 0 0 26.771-16.592l37.233 44.365c-12.894 11.357-27.833 20.45-44.198 26.644l-19.806-54.418z"/>
            <path fill="#17B5BA" d="M231.935 165.708a86.512 86.512 0 0 0 18.862-24.709l50.176 28.973a144.512 144.512 0 0 1-31.807 40.1l-37.23-44.364z"/>
            <path fill="#9BE058" d="M257.751 81.897l57.078-10.065C316.91 81.56 318 91.65 318 102c0 6.721-.464 13.333-1.356 19.813l-57.078-10.06c.358-3.199.545-6.455.545-9.753 0-6.926-.818-13.652-2.36-20.103z"/>
            <path fill="#C0FF66" d="M246.17 54.998l50.18-28.973a143.118 143.118 0 0 1 18.48 45.807L257.75 81.897a85.7 85.7 0 0 0-11.582-26.899z"/>
            <path fill="#FFDF46" d="M226.68 33.883l37.232-44.372a144.763 144.763 0 0 1 32.438 36.514l-50.18 28.973a86.684 86.684 0 0 0-19.49-21.115z"/>
            <path fill="#FC3E81" d="M126.46-33.962C141.346-39.172 157.34-42 174-42v57.89a86.014 86.014 0 0 0-27.74 4.565l-19.8-54.417z"/>
            <path fill="#F01054" d="M84.088-10.489a143.72 143.72 0 0 1 42.365-23.473h.007l19.8 54.417a85.758 85.758 0 0 0-24.94 13.428L84.089-10.49z"/>
            <path fill="#7884EA" d="M51.65 26.025a144.801 144.801 0 0 1 32.438-36.514l37.233 44.372a86.632 86.632 0 0 0-19.488 21.115L51.65 26.025z"/>
            <path fill="#1685FB" d="M31.356 121.813l57.078-10.06A85.624 85.624 0 0 0 97.204 141l-50.18 28.973a142.916 142.916 0 0 1-15.668-48.16z"/>
            <path fill="#43A3F9" d="M47.024 169.972L97.201 141a86.56 86.56 0 0 0 18.864 24.709l-37.233 44.365a144.592 144.592 0 0 1-31.808-40.1z"/>
            <path fill="#64BDFF" d="M78.832 210.073l37.233-44.365a86.12 86.12 0 0 0 26.771 16.591l-19.808 54.418c-16.363-6.195-31.302-15.287-44.196-26.644z"/>
            <path fill="#4A5BE5" d="M33.17 71.832a143.118 143.118 0 0 1 18.48-45.807l50.18 28.973a85.7 85.7 0 0 0-11.581 26.9L33.171 71.831z"/>
            <path fill="#1CC939" d="M250.799 141a85.685 85.685 0 0 0 8.767-29.246l57.078 10.059a142.916 142.916 0 0 1-15.668 48.16l-50.177-28.974z"/>
            <path fill="#364EC6" d="M30 102c0-10.35 1.09-20.439 3.17-30.168L90.25 81.897A86.323 86.323 0 0 0 87.889 102c0 3.298.187 6.554.545 9.754l-57.078 10.059A145.182 145.182 0 0 1 30 102z"/>
            <path fill="#F9B200" d="M201.74 20.455l19.807-54.417a143.65 143.65 0 0 1 42.365 23.475l-37.23 44.37a85.826 85.826 0 0 0-24.942-13.428z"/>
            <path fill="#FD6096" d="M174 15.89V-42c16.66 0 32.66 2.828 47.547 8.038l-19.809 54.417A85.991 85.991 0 0 0 174 15.89z"/>
            <g>
                <path fill="#9CC6DB" d="M277.064 244.725l-55.891-55.893a3.523 3.523 0 0 1 0-4.983l70.92-70.92a3.524 3.524 0 0 1 4.983 0l55.891 55.891a3.524 3.524 0 0 1 0 4.984l-70.92 70.92a3.524 3.524 0 0 1-4.983 0z"/>
                <path fill="#3FEFEF" d="M290.367 216.666l-41.135-41.136a3.622 3.622 0 0 1 0-5.122l43.05-43.05a3.62 3.62 0 0 1 5.12 0l41.136 41.135a3.622 3.622 0 0 1 0 5.123l-43.05 43.05a3.62 3.62 0 0 1-5.12 0zM286.948 227.922a2.71 2.71 0 0 1-1.921-.795l-6.581-6.582a2.715 2.715 0 0 1 0-3.84 2.715 2.715 0 0 1 3.84 0l6.583 6.58a2.719 2.719 0 0 1-1.921 4.637z"/>
                <path fill="#BDDFF4" d="M293.883 197.52h-79.044a3.523 3.523 0 0 1-3.523-3.523V93.7a3.524 3.524 0 0 1 3.523-3.524h79.044a3.524 3.524 0 0 1 3.524 3.524v100.297a3.524 3.524 0 0 1-3.524 3.524z"/>
                <path fill="#C0FF66" d="M283.449 168.274h-58.174c-2.001 0-3.623-1.622-3.623-3.623v-60.882c0-2 1.622-3.622 3.623-3.622h58.174c2 0 3.621 1.622 3.621 3.622v60.882c0 2-1.622 3.623-3.621 3.623zM287.07 179.445h-9.308a2.715 2.715 0 1 1 0-5.431h9.308a2.716 2.716 0 1 1 0 5.431z"/>
                <path fill="#E3F4FF" d="M256.566 245.442h-79.042a3.524 3.524 0 0 1-3.524-3.524V141.62a3.523 3.523 0 0 1 3.524-3.524h79.042a3.523 3.523 0 0 1 3.524 3.524v100.297a3.524 3.524 0 0 1-3.524 3.524z"/>
                <g fill="#7884EA">
                    <path d="M246.132 216.193h-58.174c-2 0-3.621-1.62-3.621-3.621V151.69c0-2 1.62-3.622 3.621-3.622h58.174c2.001 0 3.623 1.622 3.623 3.622v60.882c0 2-1.622 3.621-3.623 3.621zM249.755 227.368h-9.308a2.716 2.716 0 1 1 0-5.433h9.308a2.716 2.716 0 1 1 0 5.433z"/>
                </g>
            </g>
        </g>
    </g>
</svg>
