<svg xmlns="http://www.w3.org/2000/svg" xmlns:xlink="http://www.w3.org/1999/xlink" width="365" height="246" viewBox="0 0 365 246">
    <defs>
        <path id="a" d="M8 0h349a8 8 0 0 1 8 8v172c0 36.45-29.55 66-66 66H66c-36.45 0-66-29.55-66-66V8a8 8 0 0 1 8-8z"/>
    </defs>
    <g fill="none" fill-rule="evenodd">
        <mask id="b" fill="#fff">
            <use xlink:href="#a"/>
        </mask>
        <use fill="#0655E7" xlink:href="#a"/>
        <g fill-rule="nonzero" mask="url(#b)">
            <path fill="#64BDFF" d="M312.505 47.343L24.965 108.46l30.937 145.55c4.328 20.361 24.344 33.361 44.706 29.033l250.672-53.282a6.037 6.037 0 0 0 4.648-7.16l-36.264-170.61a6.035 6.035 0 0 0-7.159-4.65z"/>
            <path fill="#43A3F9" d="M319.664 51.994l36.264 170.61a6.037 6.037 0 0 1-4.648 7.158l-14.886 3.164a6.037 6.037 0 0 0 4.649-7.158l-36.265-170.61a6.034 6.034 0 0 0-7.159-4.651l14.886-3.164a6.034 6.034 0 0 1 7.159 4.65z"/>
            <g fill="#1685FB">
                <path d="M98.186 197.872a6.034 6.034 0 0 1-4.649 7.159l-9.103 1.935c-20.36 4.327-33.358 24.343-29.03 44.705L16.628 69.237C12.3 48.875 25.297 28.86 45.66 24.532l9.1-1.934a6.037 6.037 0 0 1 7.16 4.649l36.267 170.625zM307.11 128.312c-3.992-18.777-22.514-30.803-41.288-26.812-18.09 3.845-29.91 21.176-27.182 39.23l-20.384 4.332a4.525 4.525 0 0 0-3.485 5.37l10.752 50.583a4.527 4.527 0 0 0 5.367 3.487l50.584-10.751a4.527 4.527 0 0 0 3.487-5.37l-4.025-18.934c18.406-4.272 30.118-22.575 26.173-41.135zm-39.406-17.958c13.892-2.953 27.596 5.949 30.549 19.84 2.907 13.678-5.676 27.164-19.2 30.397l-4.844-22.794a4.526 4.526 0 0 0-5.37-3.487l-21.32 4.532c-1.705-13.16 6.98-25.681 20.185-28.488zm2.203 50.756c-8.326-1.036-15.726-6.118-19.652-13.592l16.038-3.41 3.614 17.002zm-36.471 33.594l-8.87-41.726 16.574-3.523c5.35 12.292 17.409 20.43 30.73 20.885l3.293 15.495-41.727 8.87z"/>
                <path d="M307.246 167.068l-9.85 2.094a4.529 4.529 0 0 0 1.882 8.856l9.85-2.093a4.527 4.527 0 1 0-1.883-8.857zM309.676 178.5l-9.85 2.093a4.527 4.527 0 1 0 1.881 8.854l9.851-2.093a4.526 4.526 0 1 0-1.882-8.854zM110.045 132.767l7.086-1.506a4.529 4.529 0 0 0-1.883-8.857l-7.086 1.507a4.527 4.527 0 0 0-3.485 5.369 4.527 4.527 0 0 0 5.368 3.487zM112.787 145.667l34.184-7.266a4.527 4.527 0 1 0-1.882-8.854l-34.184 7.266a4.525 4.525 0 0 0-3.486 5.367 4.525 4.525 0 0 0 5.368 3.487zM137.143 127.007l7.086-1.506a4.529 4.529 0 0 0-1.882-8.856l-7.086 1.506a4.527 4.527 0 0 0-3.485 5.369 4.527 4.527 0 0 0 5.367 3.487zM164.242 121.247l7.086-1.506a4.529 4.529 0 0 0-1.883-8.856l-7.086 1.506a4.529 4.529 0 0 0 1.883 8.856zM115.509 158.473l34.184-7.266a4.529 4.529 0 0 0-1.882-8.857l-34.185 7.267a4.525 4.525 0 0 0-3.485 5.369 4.527 4.527 0 0 0 5.368 3.487zM118.23 171.277l54.197-11.52a4.529 4.529 0 0 0-1.882-8.857l-54.197 11.52a4.527 4.527 0 0 0-3.485 5.37 4.527 4.527 0 0 0 5.367 3.487zM120.952 184.08l61.283-13.025a4.527 4.527 0 1 0-1.883-8.857l-61.283 13.026a4.527 4.527 0 0 0-3.485 5.37 4.525 4.525 0 0 0 5.368 3.487zM135.658 193.26l-12.201 2.594a4.526 4.526 0 0 0-3.487 5.37l2.593 12.201a4.526 4.526 0 0 0 5.37 3.487l12.201-2.593a4.529 4.529 0 0 0 3.487-5.37l-2.593-12.201a4.527 4.527 0 0 0-5.37-3.487zm-1.835 13.143l-3.347.712-.71-3.345 3.346-.711.711 3.344zM164.935 187.038l-12.201 2.593a4.527 4.527 0 0 0-3.488 5.37l2.594 12.201a4.527 4.527 0 0 0 5.37 3.487l12.201-2.593a4.527 4.527 0 0 0 3.487-5.37l-2.593-12.201a4.526 4.526 0 0 0-5.37-3.487zM163.1 200.18l-3.345.711-.71-3.344 3.344-.711.711 3.344zM194.214 180.814l-12.204 2.594a4.525 4.525 0 0 0-3.484 5.37l2.593 12.2a4.525 4.525 0 0 0 5.367 3.488l12.204-2.594a4.529 4.529 0 0 0 3.487-5.37l-2.593-12.2a4.527 4.527 0 0 0-5.37-3.488zm-1.835 13.143l-3.345.71-.71-3.344 3.344-.71.711 3.344zM142.268 224.355l-12.202 2.594a4.527 4.527 0 0 0-3.487 5.37l2.594 12.203a4.527 4.527 0 0 0 5.37 3.487l12.201-2.593a4.529 4.529 0 0 0 3.487-5.37l-2.594-12.204a4.529 4.529 0 0 0-5.37-3.487zm-1.835 13.145l-3.347.712-.711-3.347 3.347-.712.711 3.347zM171.544 218.132l-12.201 2.594a4.529 4.529 0 0 0-3.487 5.37l2.594 12.203a4.529 4.529 0 0 0 5.37 3.487l12.2-2.593a4.527 4.527 0 0 0 3.488-5.37l-2.594-12.204a4.527 4.527 0 0 0-5.37-3.487zm-1.834 13.145l-3.345.711-.711-3.347 3.345-.71.711 3.346zM200.823 211.909l-12.203 2.594a4.527 4.527 0 0 0-3.485 5.369l2.594 12.204a4.527 4.527 0 0 0 5.367 3.487l12.204-2.594a4.529 4.529 0 0 0 3.487-5.37l-2.594-12.203a4.529 4.529 0 0 0-5.37-3.487zm-1.834 13.145l-3.345.71-.711-3.346 3.345-.711.711 3.347z"/>
            </g>
            <path fill="#4E7693" d="M219.807 116.463l-17.002 13.494c-1.899 1.505-4.659-.086-4.31-2.482l3.131-21.48 18.181 10.468z"/>
            <path fill="#C0FF66" d="M223.647 114.426l58.25-101.169a4.455 4.455 0 0 0-1.637-6.087l-14.462-8.326a4.457 4.457 0 0 0-6.086 1.64l-58.25 101.169a4.455 4.455 0 0 0 1.64 6.086l14.459 8.327a4.452 4.452 0 0 0 6.086-1.64z"/>
            <path fill="#9BE058" d="M223.647 114.426l58.25-101.169a4.455 4.455 0 0 0-1.637-6.087l-7.23-4.163-62.698 108.895 7.229 4.164a4.452 4.452 0 0 0 6.086-1.64z"/>
            <path fill="#FD82AC" d="M275.588 24.216l6.31-10.957a4.455 4.455 0 0 0-1.64-6.086l-14.46-8.327a4.454 4.454 0 0 0-6.086 1.638l-6.31 10.958 22.186 12.774z"/>
        </g>
    </g>
</svg>
