<svg xmlns="http://www.w3.org/2000/svg" width="200" height="40" viewBox="0 0 200 40">
    <g fill="none" fill-rule="evenodd">
        <g fill="#5BE79C">
            <path d="M5.267 17.391L.34 22.962h29.3l4.925-5.57zM37.875 17.391l-4.926 5.571h5.244l4.925-5.57z"/>
        </g>
        <path fill="#090941" fill-rule="nonzero" d="M70.37 9.522h5.608V31.26H70.37v-2.565c-1.566 1.956-3.913 3.174-7.087 3.174-5.783 0-10.566-5-10.566-11.479 0-6.478 4.783-11.478 10.566-11.478 3.174 0 5.521 1.217 7.087 3.174V9.522zm-6.044 17c3.478 0 6.044-2.479 6.044-6.13 0-3.653-2.566-6.131-6.044-6.131-3.435 0-6 2.478-6 6.13 0 3.652 2.565 6.13 6 6.13zm33.217-17h5.61v30.435h-5.61V28.696c-1.565 2-3.87 3.174-7.043 3.174-5.826 0-10.609-5-10.609-11.479 0-6.478 4.783-11.478 10.609-11.478 3.174 0 5.478 1.174 7.043 3.174V9.522zm-6 17c3.435 0 6-2.479 6-6.13 0-3.653-2.565-6.131-6-6.131-3.478 0-6.043 2.478-6.043 6.13 0 3.652 2.565 6.13 6.043 6.13zm31.087-17h5.61V31.26h-5.61v-2.435c-1.304 1.957-3.565 3.044-6.478 3.044-4.609 0-8.217-3.218-8.217-9V9.522h5.608v12.652c0 2.956 1.783 4.478 4.305 4.478 2.739 0 4.782-1.609 4.782-5.391V9.52zm15.74 6.174c0 3.217 11.217 1.217 11.217 9.217 0 4.696-4.087 6.957-8.74 6.957-4.347 0-7.564-1.827-9.13-5.174l4.87-2.74c.609 1.783 2.087 2.827 4.26 2.827 1.783 0 3-.61 3-1.87 0-3.174-11.217-1.435-11.217-9.087 0-4.435 3.783-6.913 8.261-6.913 3.522 0 6.566 1.609 8.261 4.609l-4.782 2.608c-.653-1.39-1.87-2.217-3.479-2.217-1.391 0-2.521.609-2.521 1.783zm26.608-.783h-4.913v9.044c0 2.347 1.696 2.39 4.913 2.217v5.087c-7.87.87-10.521-1.435-10.521-7.304v-9.044h-3.783V9.522h3.783V5.13l5.608-1.695v6.087h4.913v5.391zm6.74-8c-1.87 0-3.435-1.565-3.435-3.435S169.848 0 171.717 0c1.913 0 3.479 1.609 3.479 3.478 0 1.87-1.566 3.435-3.479 3.435zm-2.783 24.348V9.52h5.608v21.74h-5.608zm30.782 0h-6.521l-7.913-9.87v9.87h-5.61V.826h5.61v18.261l7.478-9.565h6.696l-8.74 10.739 9 11z"/>
    </g>
</svg>
